<?xml version="1.0" encoding="UTF-8" standalone="no"?>
<!-- Created with Inkscape (http://www.inkscape.org/) -->

<svg
   width="431.65918mm"
   height="67.02774mm"
   viewBox="0 0 431.65918 67.02774"
   version="1.1"
   id="svg1"
   inkscape:version="1.4.2 (f4327f4, 2025-05-13)"
   sodipodi:docname="omecp-logo.svg"
   xmlns:inkscape="http://www.inkscape.org/namespaces/inkscape"
   xmlns:sodipodi="http://sodipodi.sourceforge.net/DTD/sodipodi-0.dtd"
   xmlns="http://www.w3.org/2000/svg"
   xmlns:svg="http://www.w3.org/2000/svg">
  <sodipodi:namedview
     id="namedview1"
     pagecolor="#ffffff"
     bordercolor="#000000"
     borderopacity="0.25"
     inkscape:showpageshadow="2"
     inkscape:pageopacity="0.0"
     inkscape:pagecheckerboard="0"
     inkscape:deskcolor="#d1d1d1"
     inkscape:document-units="mm"
     inkscape:zoom="0.35589576"
     inkscape:cx="1250.3661"
     inkscape:cy="234.61926"
     inkscape:window-width="1920"
     inkscape:window-height="1013"
     inkscape:window-x="2391"
     inkscape:window-y="-9"
     inkscape:window-maximized="1"
     inkscape:current-layer="layer1" />
  <defs
     id="defs1" />
  <g
     inkscape:label="Layer 1"
     inkscape:groupmode="layer"
     id="layer1"
     transform="translate(111.48882,-66.290125)">
    <path
       style="font-weight:900;font-size:70.5556px;font-family:Orbitron;-inkscape-font-specification:'Orbitron Heavy';text-align:center;text-anchor:middle;fill:#2690e3;stroke-width:5"
       d="m -101.04652,66.290077 h 29.915578 q 4.303891,0 7.337782,3.104446 3.104447,3.033891 3.104447,7.337783 v 29.915574 q 0,4.30389 -3.104447,7.40834 -3.033891,3.03389 -7.337782,3.03389 h -29.915578 q -4.37445,0 -7.40834,-3.03389 -3.03389,-3.03389 -3.03389,-7.40834 V 76.732306 q 0,-4.374448 3.03389,-7.408338 3.03389,-3.033891 7.40834,-3.033891 z m 0.49389,11.006674 v 28.786689 h 28.786687 V 77.296751 Z m 78.73999,-1.12889 q 4.233336,0 7.196672,3.033891 3.033891,3.033891 3.033891,7.196671 v 20.461127 q 0,4.16278 -3.033891,7.19667 -2.963336,3.03389 -7.196672,3.03389 H -42.273765 V 133.3179 H -53.068772 V 76.167861 Z M -42.273765,86.962868 V 106.2951 h 19.89668 V 86.962868 Z M 24.824578,76.167861 q 4.233336,0 7.196671,3.033891 3.033891,3.033891 3.033891,7.196671 V 102.06177 H 4.3634531 v 4.23333 H 35.05514 v 10.79501 H 3.7990083 q -4.16278063,0 -7.1966716,-3.03389 -3.0338909,-3.03389 -3.0338909,-7.19667 V 86.398423 q 0,-4.16278 3.0338909,-7.196671 3.03389097,-3.033891 7.1966716,-3.033891 z M 4.3634531,92.607317 H 24.260133 V 86.962868 H 4.3634531 Z M 73.860677,76.167861 q 4.233336,0 7.196672,3.033891 3.033891,3.033891 3.033891,7.196671 V 117.09011 H 73.296232 V 86.962868 H 53.399552 V 117.09011 H 42.604545 V 76.167861 Z m 46.496083,10.653896 17.14502,-20.53168 h 11.35945 V 117.09011 H 137.85455 V 83.011755 l -17.49779,20.884455 -17.56834,-20.8139 v 34.0078 H 91.8523 V 66.290077 h 11.2889 z m 84.0317,-20.53168 v 11.006674 h -35.84225 v 8.890006 h 28.85724 v 11.006674 h -28.85724 v 8.890009 h 35.84225 v 11.00667 H 157.46898 V 66.290077 Z m 57.64396,11.006674 h -39.72281 v 28.786689 h 39.72281 v 11.00667 h -40.2167 q -4.37444,0 -7.40833,-3.03389 -3.0339,-3.03389 -3.0339,-7.40834 V 76.732306 q 0,-4.374448 3.0339,-7.408338 3.03389,-3.033891 7.40833,-3.033891 h 40.2167 z m 7.33784,-10.936119 h 40.28725 q 4.30389,0 7.40834,3.104447 3.10444,3.033891 3.10444,7.337782 v 13.123343 q 0,4.303891 -3.10444,7.408338 -3.10445,3.033888 -7.40834,3.033888 l -29.35113,0.0706 q 0.21166,0 0.21166,0.42333 -0.14111,0 -0.21166,-0.0705 v 16.29834 h -10.93612 z m 10.93612,10.936119 v 12.065008 h 28.78668 V 77.296751 Z"
       id="text1"
       aria-label="OpenMECP" />
  </g>
</svg>
